<svg width="24" height="22" viewBox="0 0 24 22" fill="none" xmlns="http://www.w3.org/2000/svg">
<path d="M8.49992 0.333336L6.36492 2.66667H2.66659C1.38325 2.66667 0.333252 3.71667 0.333252 5V19C0.333252 20.2833 1.38325 21.3333 2.66659 21.3333H21.3333C22.6166 21.3333 23.6666 20.2833 23.6666 19V5C23.6666 3.71667 22.6166 2.66667 21.3333 2.66667H17.6349L15.4999 0.333336H8.49992ZM11.9999 17.8333C8.77992 17.8333 6.16659 15.22 6.16659 12C6.16659 8.78 8.77992 6.16667 11.9999 6.16667C15.2199 6.16667 17.8333 8.78 17.8333 12C17.8333 15.22 15.2199 17.8333 11.9999 17.8333Z" fill="#156746"/>
</svg>
