<svg width="23" height="17" viewBox="0 0 23 17" fill="none" xmlns="http://www.w3.org/2000/svg">
<path d="M1.375 0.625C0.75368 0.625 0.25 1.12868 0.25 1.75C0.25 2.37132 0.75368 2.875 1.375 2.875H21.625C22.2463 2.875 22.75 2.37132 22.75 1.75C22.75 1.12868 22.2463 0.625 21.625 0.625H11.5H1.375ZM1.375 7.375C0.75368 7.375 0.25 7.87868 0.25 8.5C0.25 9.12132 0.75368 9.625 1.375 9.625H21.625C22.2463 9.625 22.75 9.12132 22.75 8.5C22.75 7.87868 22.2463 7.375 21.625 7.375H1.375ZM1.375 14.125C0.75368 14.125 0.25 14.6287 0.25 15.25C0.25 15.8713 0.75368 16.375 1.375 16.375H21.625C22.2463 16.375 22.75 15.8713 22.75 15.25C22.75 14.6287 22.2463 14.125 21.625 14.125H1.375Z" fill="#156746"/>
</svg>
